<svg xmlns="http://www.w3.org/2000/svg" width="355" height="361" viewBox="0 0 355 361" fill="none"><g clip-path="url(#clip0_1_3337)"><path d="M0.00341797 180.5C0.00341797 80.8173 79.4732 0 177.5 0C275.527 0 354.997 80.8173 354.997 180.5C354.997 280.183 275.527 361 177.5 361C79.4732 361 0.00341797 280.183 0.00341797 180.5Z" fill="white"></path><path d="M340.516 180.5C340.516 272.314 267.327 346.748 177.032 346.748C86.7361 346.748 13.5471 272.314 13.5471 180.5C13.5471 88.6852 86.7475 14.2515 177.032 14.2515C267.316 14.2515 340.516 88.6852 340.516 180.5Z" fill="white"></path><path d="M177.5 350.289C85.4001 350.289 10.4753 274.119 10.4753 180.5C10.4753 86.8816 85.4001 10.7122 177.5 10.7122C269.6 10.7122 344.525 86.8816 344.525 180.5C344.525 274.119 269.6 350.289 177.5 350.289ZM177.5 17.7924C89.3056 17.7924 17.5556 90.7758 17.5556 180.5C17.5556 270.225 89.3056 343.209 177.5 343.209C265.695 343.209 337.445 270.214 337.445 180.5C337.445 90.7872 265.695 17.7924 177.5 17.7924Z" fill="#15008E"></path><path d="M177.5 91C128.749 91 89.2256 131.186 89.2256 180.77C89.2256 230.355 128.749 270.541 177.5 270.541C226.251 270.541 265.774 230.355 265.774 180.77C265.774 131.186 226.251 91 177.5 91ZM177.5 253.023C138.262 253.023 106.447 220.671 106.447 180.77C106.447 140.87 138.262 108.518 177.5 108.518C216.738 108.518 248.553 140.87 248.553 180.77C248.553 220.671 216.738 253.023 177.5 253.023Z" fill="#15008E"></path><path d="M177.5 126.736L189.639 164.718H228.9L197.13 188.174L209.27 226.156L177.5 202.677L145.73 226.156L157.858 188.186L126.088 164.718H165.361L177.5 126.736Z" fill="#15008E"></path><path d="M44.0377 112.198L76.0129 117.36C77.1777 116.287 78.2169 115.647 79.1191 115.442L82.7506 118.023L76.9151 129.168L72.7811 127.535C72.4842 126.884 72.4157 125.868 72.5756 124.486L67.9734 123.641L62.983 133.165L66.1463 136.408C67.1626 135.54 68.1105 134.992 68.9898 134.775L72.6213 137.356L66.9343 148.205L62.8003 146.572C62.3778 145.613 62.3435 144.231 62.6975 142.415L40.6118 118.719L44.0263 112.198H44.0377ZM48.5257 119.701C50.4328 120.729 52.4312 122.328 54.5439 124.498L59.3744 129.499L62.9374 122.693L56.2797 121.403C53.7102 120.946 51.5176 120.284 49.6791 119.416L48.8568 119.039L48.5028 119.701H48.5257Z" fill="#E60026"></path><path d="M98.761 74.6958C97.8474 73.5995 96.5227 71.8181 94.7984 69.34L94.0561 68.2779L93.6107 68.5863C94.9354 71.4526 95.9289 73.7708 96.6141 75.5409L104.619 96.2791L99.2292 100.904L80.1697 89.6671C78.628 88.8791 76.8922 87.7371 74.9623 86.2412L73.9345 85.4989L73.5691 85.8871C75.8416 88.114 77.6574 90.0439 79.0049 91.6655L88.0036 102.503C89.3169 102.035 90.4817 101.898 91.4981 102.115L93.7249 105.632L85.7882 112.461L82.7505 109.64C82.7163 108.59 83.036 107.448 83.7098 106.203L67.8935 87.1662C66.4432 87.7029 65.2555 87.8628 64.3191 87.6229L62.0923 84.1057L71.3308 76.169L91.0413 87.6915C93.3024 88.8563 95.1752 90.101 96.6369 91.4257L97.3449 92.0195L97.9159 91.5285C96.6369 89.7584 95.5406 87.4516 94.6499 84.5967L86.4848 63.1505L95.5635 55.3508L98.6011 58.1715C98.6696 59.1536 98.327 60.3184 97.5619 61.6773L113.241 80.5427C114.634 80.0517 115.776 79.8918 116.667 80.0745L119.1 83.843L109.861 91.7797L106.652 88.7535C106.629 87.8285 106.972 86.7094 107.68 85.3961L98.7724 74.6844L98.761 74.6958Z" fill="#E60026"></path><path d="M151.109 73.0638L127.813 81.1489L125.894 77.0835C126.134 76.3527 126.865 75.4733 128.087 74.4456L120.253 51.1151C118.711 51.0808 117.592 50.8182 116.907 50.3386L115.982 45.9305L138.867 37.9824L141.848 46.867L138.285 48.6142C137.291 48.2031 136.241 47.1525 135.156 45.4852L127.322 48.2031L130.268 56.9848L137.245 54.5638C137.303 53.399 137.485 52.5426 137.782 51.983L141.06 51.2407L144.109 60.3308L141.082 61.8382C140.534 61.6441 139.872 61.0845 139.107 60.1367L132.129 62.5576L135.407 72.3101L143.64 69.4437C143.481 67.5252 143.675 66.0521 144.223 65.0243L148.094 64.1907L151.075 73.0752L151.109 73.0638Z" fill="#E60026"></path><path d="M187.31 43.1553C187.378 45.5991 186.682 47.6661 185.22 49.3676C183.758 51.0578 181.908 52.371 179.67 53.296C181.463 54.004 182.65 54.8834 183.244 55.9568L187.31 63.3454C188.988 63.8707 190.13 64.5102 190.758 65.2525L190.336 69.4207L181.371 69.6605L174.931 56.6192C174.325 55.3059 173.663 54.655 172.909 54.6778L169.461 54.7692L169.689 63.4025C172.281 63.9049 173.914 64.5673 174.565 65.3781L174.154 69.866L159.834 70.2543L159.183 65.7892C159.628 65.1611 160.576 64.5444 162.049 63.9278L161.398 39.284C159.937 38.7816 158.943 38.1992 158.429 37.5254L158.84 33.0374L172.361 32.672C177.317 32.6035 181.017 33.3115 183.461 34.7961C185.905 36.2806 187.184 39.0671 187.287 43.1667L187.31 43.1553ZM172.167 38.5532L169.038 38.6331L169.312 48.8766L172.338 48.7966C174.737 48.7281 176.529 48.317 177.694 47.5405C178.859 46.7754 179.419 45.4393 179.362 43.5322C179.316 41.6251 178.676 40.3004 177.454 39.5581C176.233 38.8158 174.474 38.4846 172.179 38.5417L172.167 38.5532Z" fill="#E60026"></path><path d="M218.177 38.0276L217.72 42.5155C217.012 43.0522 215.939 43.4291 214.477 43.6461L209.11 67.6846C210.366 68.5639 211.188 69.3633 211.565 70.0827L210.069 74.3308L197.964 71.533L198.421 67.0451C199.003 66.554 200.077 66.2 201.653 65.9602L207.02 41.9217C205.73 41.0652 204.907 40.2544 204.576 39.4779L206.072 35.2297L218.177 38.0276Z" fill="#E60026"></path><path d="M250.963 57.7837C250.232 56.8815 248.919 55.9223 247.035 54.9402C245.15 53.9581 243.198 53.9924 241.199 55.043C239.189 56.0936 237.145 58.7087 235.044 62.8655C232.943 67.0222 232.006 70.2654 232.246 72.5951C232.486 74.9247 233.696 76.6605 235.9 77.8139C239.269 79.5725 242.547 80.646 245.733 81.0114L245.276 86.1731C240.925 86.4472 236.494 85.408 232.006 83.0555C227.507 80.7031 224.915 77.7111 224.229 74.0796C223.544 70.4482 224.686 65.6861 227.667 59.805C230.636 53.9238 234.073 50.2238 237.967 48.6936C241.862 47.1748 246.041 47.5745 250.506 49.9155C254.092 51.7883 256.993 54.5748 259.22 58.2862C259.117 58.4803 258.934 58.8457 258.66 59.3939C258.386 59.942 257.803 60.8099 256.924 61.9976C256.045 63.1966 255.188 64.0988 254.355 64.7155L249.878 62.3744C249.878 61.2781 250.244 59.7593 250.997 57.8065L250.963 57.7837Z" fill="#E60026"></path><path d="M289.619 81.6855L275.036 111.08C275.687 112.542 275.972 113.741 275.881 114.677L272.352 117.406L263.696 108.362L266.482 104.856C267.19 104.765 268.15 105.005 269.394 105.587L271.587 101.385L264.187 93.642L260.179 95.7203C260.681 96.9765 260.91 98.0614 260.852 98.975L257.324 101.704L248.896 92.8883L251.682 89.3824C252.71 89.2682 254.012 89.6565 255.611 90.5472L284.537 76.3982L289.607 81.6969L289.619 81.6855ZM281.225 83.7411C279.684 85.2713 277.571 86.7216 274.899 88.1148L268.743 91.2667L274.031 96.7938L277.263 90.7414C278.473 88.4003 279.763 86.4704 281.134 84.963L281.739 84.2892L281.225 83.7525V83.7411Z" fill="#E60026"></path><path d="M297.224 122.215L284.617 128.278C284.731 129.695 284.56 130.871 284.092 131.819L280.175 133.109L275.732 123.551L279.193 121.29C280.198 121.518 281.202 122.135 282.219 123.117L304.362 112.462C304.225 110.898 304.384 109.687 304.841 108.831L308.758 107.54L313.429 117.59L299.348 136.238C298.332 137.597 296.87 139.161 294.952 140.92L293.958 141.811L294.404 142.256C296.973 140.463 299.2 139.116 301.084 138.214L313.497 132.241C313.395 130.848 313.589 129.66 314.068 128.678L317.985 127.388L322.428 136.946L318.967 139.207C317.917 138.956 316.889 138.351 315.896 137.403L288.328 150.673L284.765 143.021L298.949 124.202C299.954 122.843 301.438 121.278 303.391 119.497L304.339 118.629L303.893 118.183C301.324 119.976 299.097 121.324 297.213 122.237L297.224 122.215Z" fill="#E60026"></path><path d="M76.9152 262.825L79.5646 267.176C79.0279 268.067 78.2056 269.003 77.0979 269.997C75.9902 270.99 75.1908 271.641 74.6769 271.972C74.1631 272.292 73.8205 272.509 73.6378 272.623C69.8236 270.671 66.8544 267.941 64.7418 264.458C62.0924 260.119 61.3616 255.916 62.5492 251.851C63.7369 247.785 67.0943 244.005 72.6214 240.522C78.1485 237.039 82.7278 235.498 86.3479 235.909C89.9679 236.32 93.1084 238.707 95.7692 243.08C98.43 247.454 99.8003 251.851 99.8803 256.293L94.867 257.172C94.2503 253.963 92.9371 250.732 90.95 247.454C89.6482 245.319 87.8439 244.222 85.5485 244.165C83.2532 244.108 80.147 245.319 76.2415 247.774C72.3359 250.229 69.9378 252.525 69.0699 254.637C68.1906 256.75 68.3162 258.726 69.4353 260.564C70.5544 262.403 71.5822 263.647 72.5415 264.321C74.3915 263.408 75.8646 262.905 76.9381 262.825H76.9152Z" fill="#15008E"></path><path d="M124.718 281.268C124.924 285.619 123.028 290.393 119.054 295.589C115.08 300.773 111.254 303.697 107.588 304.348C103.923 304.999 100.097 303.742 96.0888 300.568C92.0805 297.393 89.9564 293.704 89.6938 289.513C89.4426 285.322 91.304 280.617 95.2895 275.41C99.2864 270.203 103.146 267.222 106.903 266.457C110.649 265.692 114.509 266.88 118.46 270.02C122.423 273.16 124.501 276.906 124.707 281.268H124.718ZM99.3777 295.44C103.397 298.626 108.011 296.811 113.23 290.016C116.039 286.362 117.524 283.335 117.695 280.937C117.878 278.55 117.033 276.609 115.183 275.147C113.321 273.674 111.231 273.355 108.89 274.188C106.549 275.022 103.968 277.271 101.171 280.926C98.3614 284.58 96.8996 287.549 96.774 289.822C96.6484 292.094 97.5163 293.967 99.3891 295.452L99.3777 295.44Z" fill="#15008E"></path><path d="M163.123 292.277C165.235 296.068 165.669 301.195 164.425 307.659C163.18 314.111 161.067 318.473 158.087 320.734C155.106 322.996 151.132 323.635 146.153 322.642C141.174 321.648 137.634 319.341 135.544 315.71C133.454 312.078 133.032 307.031 134.277 300.556C135.521 294.081 137.657 289.639 140.66 287.24C143.664 284.831 147.626 284.123 152.56 285.105C157.493 286.087 161.01 288.474 163.123 292.277ZM146.815 316.555C151.817 317.548 155.129 313.814 156.762 305.352C157.641 300.796 157.63 297.415 156.728 295.2C155.826 292.985 154.215 291.648 151.909 291.192C149.602 290.735 147.592 291.409 145.868 293.224C144.155 295.04 142.853 298.226 141.973 302.783C141.094 307.339 141.106 310.651 141.996 312.729C142.887 314.819 144.497 316.087 146.827 316.555H146.815Z" fill="#15008E"></path><path d="M182.011 325.37L180.755 321.053C181.132 320.3 181.988 319.523 183.336 318.747L179.282 294.446C177.717 294.126 176.666 293.715 176.107 293.178L175.89 288.679L188.12 286.566L189.377 290.883C188.954 291.579 188.098 292.321 186.796 293.132L190.85 317.433C192.3 317.73 193.351 318.164 194.024 318.747L194.241 323.246L182.011 325.359V325.37ZM207.637 287.742C206.974 288.918 205.547 289.946 203.366 290.837L197.21 304.917L208.151 314.681C209.567 315.012 210.572 315.435 211.154 315.915L211.348 320.311L199.426 322.367L198.181 318.153C198.478 317.593 199.083 316.988 199.985 316.36L189.285 306.059L197.702 284.91L206.381 283.414L207.637 287.731V287.742Z" fill="#15008E"></path><path d="M227.644 313.928L225.463 310C225.657 309.177 226.331 308.23 227.461 307.167L218.12 284.419C216.533 284.465 215.414 284.305 214.751 283.917L213.541 279.577L224.995 274.713L227.176 278.641C226.913 279.406 226.239 280.343 225.155 281.427L234.496 304.175C235.969 304.13 237.1 304.313 237.888 304.724L239.098 309.063L227.644 313.928Z" fill="#15008E"></path><path d="M259.208 262.483L256.376 265.292C255.234 265.189 253.909 264.538 252.436 263.339L245.527 268.718L251.682 276.894L257.541 272.338C257.187 271.162 257.084 270.294 257.244 269.723L260.156 267.998L265.9 275.627L263.468 277.991C262.851 277.934 262.04 277.602 261.058 277.009L255.2 281.565L260.75 288.931L267.316 283.815C266.551 281.965 266.277 280.503 266.494 279.43L269.897 277.385L275.504 284.842L256.296 299.791L253.201 296.559C253.19 295.714 253.589 294.629 254.423 293.305L239.692 273.731C238.173 274.188 237.042 274.325 236.311 274.119L234.062 270.237L253.601 255.026L259.208 262.483Z" fill="#15008E"></path><path d="M271.712 240.397C270.776 241.231 269.931 242.19 269.189 243.286C268.446 244.383 268.127 245.456 268.218 246.495C268.309 247.534 268.846 248.402 269.817 249.076C270.799 249.761 271.735 250.035 272.626 249.91C273.517 249.795 274.67 249.133 276.075 247.934L279.878 244.759C281.933 243.046 284.023 242.007 286.17 241.653C288.317 241.288 290.646 241.984 293.159 243.732C296.139 245.799 297.761 248.516 298.012 251.897C298.275 255.277 297.316 258.589 295.146 261.82C293.947 263.602 292.496 265.281 290.772 266.857C289.048 268.432 287.369 269.552 285.713 270.237C285.542 270.123 285.199 269.883 284.708 269.54C284.217 269.198 283.429 268.501 282.379 267.462C281.316 266.423 280.54 265.452 280.037 264.538L282.881 260.302C284.103 260.461 285.508 261.021 287.095 261.98C288.225 261.238 289.265 260.187 290.19 258.806C291.115 257.424 291.56 256.065 291.514 254.729C291.469 253.393 290.852 252.308 289.653 251.474C289.093 251.086 288.602 250.812 288.18 250.652C287.757 250.492 287.175 250.492 286.444 250.652C285.713 250.823 284.925 251.246 284.08 251.92L279.683 255.597C275.241 259.354 270.753 259.651 266.231 256.51C263.57 254.672 262.109 252.216 261.823 249.145C261.549 246.073 262.463 242.966 264.587 239.803C266.711 236.64 269.486 234.025 272.923 231.981C273.094 232.095 273.437 232.335 273.928 232.677C274.43 233.02 275.207 233.717 276.258 234.756C277.32 235.795 278.096 236.766 278.599 237.679L275.755 241.916C274.716 241.939 273.368 241.436 271.701 240.408L271.712 240.397Z" fill="#15008E"></path><path d="M303.539 171.718L306.783 181.882H317.289L308.792 188.162L312.036 198.315L303.539 192.034L295.043 198.315L298.286 188.162L289.79 181.882H300.296L303.539 171.718Z" fill="#E60026"></path><path d="M56.3482 171.718L59.6028 181.882H70.109L61.6013 188.162L64.8559 198.315L56.3482 192.034L47.8519 198.315L51.0951 188.162L42.5989 181.882H53.105L56.3482 171.718Z" fill="#E60026"></path></g><defs><clipPath id="clip0_1_3337"><rect width="354.993" height="361" fill="white" transform="translate(0.00341797)"></rect></clipPath></defs></svg>